<?xml version="1.0" encoding="UTF-8" standalone="no"?>
<svg width="137px" height="234px" viewBox="0 0 137 234" version="1.1" xmlns="http://www.w3.org/2000/svg" xmlns:xlink="http://www.w3.org/1999/xlink" xmlns:sketch="http://www.bohemiancoding.com/sketch/ns">
    <title>Slice 1</title>
    <description>Created with Sketch (http://www.bohemiancoding.com/sketch)</description>
    <defs></defs>
    <g id="Page 1" stroke="none" stroke-width="1" fill="none" fill-rule="evenodd">
        <path d="M72.7708219,0 C51.3430419,94.72614 -1.19716809,104.20115 0.0208219084,164.15625 C1.03565191,214.11112 37.3529619,232.64651 68.9895719,233.125 C103.936882,233.65356 136.631832,216.16369 136.302072,164.03125 C135.996922,115.78881 88.5950119,94.51719 72.7708219,0 L72.7708219,0 Z M66.0208219,37.78125 C66.0208219,37.78125 55.9034619,77.6467 51.1458219,83.59375 C46.3881919,89.54079 39.2708219,101.4375 39.2708219,101.4375 L34.4895719,98.46875 C34.4895719,98.46875 52.3285519,72.8874 55.3020719,65.15625 C58.2756019,57.42509 66.0208219,37.78125 66.0208219,37.78125 L66.0208219,37.78125 Z M22.7395719,113.1875 L30.5520719,115.0625 C30.5520719,115.0625 27.3328819,123.40773 26.1145719,127.46875 C23.5914519,135.87914 26.1145719,172.0625 26.1145719,172.0625 L10.1145719,173.71875 C10.1145719,173.71875 8.45832191,172.03682 8.45832191,154.375 C8.45832191,136.71318 22.7395719,113.1875 22.7395719,113.1875 L22.7395719,113.1875 Z M22.7395719,113.1875" id="rect2985" fill="#0066FF"></path>
    </g>
</svg>