<?xml version="1.0" encoding="UTF-8" standalone="no"?>
<svg width="507px" height="410px" viewBox="0 0 507 410" version="1.1" xmlns="http://www.w3.org/2000/svg" xmlns:xlink="http://www.w3.org/1999/xlink" xmlns:sketch="http://www.bohemiancoding.com/sketch/ns">
    <title>Slice 1</title>
    <description>Created with Sketch (http://www.bohemiancoding.com/sketch)</description>
    <defs></defs>
    <g id="Page 1" stroke="none" stroke-width="1" fill="none" fill-rule="evenodd">
        <path d="M233.3125,21.625 C231.01848,19.22454 227.81664,17.71875 224.21875,17.71875 L129.5625,17.71875 C122.57347,17.71875 116.96875,23.35472 116.96875,30.34375 L116.96875,38.15625 C116.96875,45.14528 122.57347,50.78125 129.5625,50.78125 L224.21875,50.78125 C227.81664,50.78125 231.01848,49.27546 233.3125,46.875 L233.3125,83.53125 C222.11982,86.79179 213.96875,97.07062 213.96875,109.34375 L213.96875,149.71875 L198.84375,149.71875 C183.93381,149.71875 171.90625,161.71506 171.90625,176.625 L171.90625,200.1875 L86.71875,200.1875 C61.22555,200.1875 40.33723,219.21719 37.4375,243.90625 L37.09375,365.5625 L27.75,365.5625 C12.37412,365.5625 0,377.93662 0,393.3125 C0,408.68838 1.75,409.09375 1.75,409.09375 L196.90625,409.09375 C196.90625,409.09375 198.65625,408.68838 198.65625,393.3125 C198.65625,377.93662 185.78293,361.67635 170.90625,365.5625 L163.25,365.5625 L163.25,299.40625 L455.15625,299.40625 L455.15625,366.6875 C455.15625,381.59744 467.15256,393.625 482.0625,393.625 C483.11056,393.625 484.14007,393.553 485.15625,393.4375 L507,393.625 L507,111.03125 L485.15625,111.03125 C484.13913,111.10307 483.11156,111.03125 482.0625,111.03125 C467.15256,111.03125 459.71698,123.74222 455.15625,137.9375 L455.15625,200.1875 L319.9375,200.1875 L319.9375,176.625 C319.9375,161.71506 307.94119,149.71875 293.03125,149.71875 L277.875,149.71875 L277.875,109.34375 C277.875,97.06016 269.73869,86.78254 258.53125,83.53125 L258.53125,46.71875 C260.83306,49.21266 264.13543,50.78125 267.8125,50.78125 L362.4375,50.78125 C369.42653,50.78125 375.0625,45.14528 375.0625,38.15625 L375.0625,30.34375 C375.0625,23.35472 369.42653,17.71875 362.4375,17.71875 L267.8125,17.71875 C264.13543,17.71875 260.83306,19.28734 258.53125,21.78125 L258.53125,12.625 C258.53125,5.63597 252.92653,-7.10542736e-15 245.9375,-7.10542736e-15 C238.94847,-7.10542736e-15 233.3125,5.63597 233.3125,12.625 L233.3125,21.625 Z M233.3125,21.625" id="path3783" fill="#000000" transform="translate(253.500000, 204.546875) scale(-1, 1) translate(-253.500000, -204.546875) "></path>
    </g>
</svg>