<?xml version="1.0" encoding="UTF-8" standalone="no"?>
<svg width="567px" height="567px" viewBox="0 0 567 567" version="1.1" xmlns="http://www.w3.org/2000/svg" xmlns:xlink="http://www.w3.org/1999/xlink" xmlns:sketch="http://www.bohemiancoding.com/sketch/ns">
    <title>Slice 1</title>
    <description>Created with Sketch (http://www.bohemiancoding.com/sketch)</description>
    <defs></defs>
    <g id="Page 1" stroke="none" stroke-width="1" fill="none" fill-rule="evenodd">
        <g id="svg2" transform="translate(2.000000, 2.000000)" stroke-width="3" stroke="#000000" fill="#000000">
            <g id="layer4">
                <path d="M290.09375,0.28125 C260.9168,2.760073 228.10599,11.010311 230.40625,65.5 C209.41102,70.32497 188.78567,78.292 169.15625,89.625 C168.7038,89.88625 168.26229,90.14241 167.8125,90.40625 C144.39032,74.68806 144.34527,56.81753 150.03125,38.4375 C126.83025,54.59632 103.36479,77.12104 128.09375,120.09375 C111.96844,135.22573 98.41123,152.46026 87.6875,171.125 C57.753567,169.91385 48.440809,154.0991 44.0625,134.84375 C38.733905,146.19638 33.975078,158.68002 34.09375,171.1875 C34.246242,187.26861 42.456502,203.4293 67.75,217.5 C61.493061,238.11479 58.234993,259.58455 58.125,281.25 C30.577924,296.4553 14.202351,287.38549 0.5,272.59375 C2.950514,301.43761 11.016061,333.82988 63.84375,332.34375 C68.675992,353.11964 76.592108,373.56571 87.8125,393 C88.16437,393.60944 88.48684,394.20766 88.84375,394.8125 C72.818041,420.1959 54.474673,420.40338 35.59375,414.5625 C42.266822,424.1438 50.047574,433.81619 59.875,440.0625 C74.237928,449.19168 92.9948,451.1149 119.34375,435.21875 C134.25041,450.87802 151.19567,463.9885 169.46875,474.46875 C169.24033,506.85811 153.08974,516.72451 133.1875,521.25 C159.63859,533.66531 192.0513,542.89884 217.28125,494.90625 C237.64618,500.91779 258.85065,504.0371 280.21875,504.0625 C296.30294,532.29437 287.21161,548.89261 272.21875,562.78125 C301.32337,560.30858 334.02726,552.1259 331.90625,498 C352.22882,493.13309 372.20211,485.29182 391.21875,474.3125 C392.28539,473.69664 393.32252,473.00582 394.375,472.375 C419.80054,488.40703 420.00028,506.8585 414.15625,525.75 C437.80346,509.28045 461.6752,486.20235 434.5625,441.59375 C450.22271,426.46259 463.36273,409.2923 473.75,390.78125 C504.35748,391.72677 513.83044,407.56386 518.25,427 C523.62707,415.54404 528.41186,402.99125 528.21875,390.375 C527.97046,374.15412 519.49196,357.84789 493.40625,343.71875 C499.07317,324.15967 502.05344,303.83277 502.21875,283.34375 C531.34581,266.09572 548.27863,275.21793 562.40625,290.46875 C559.91422,261.1363 551.58969,228.15393 496.3125,230.84375 C491.46475,210.29907 483.6256,190.09114 472.53125,170.875 C472.48237,170.79039 472.39255,170.74085 472.34375,170.65625 C488.81416,142.14507 507.83561,141.64537 527.46875,147.71875 C520.66045,137.94331 512.67956,128.11667 502.5625,121.875 C487.77604,112.75262 468.38131,111.30703 440.96875,128.78125 C426.09304,113.14646 409.22327,100.00532 391,89.53125 C391.57973,58.00847 407.60347,48.31831 427.28125,43.84375 C401.00895,31.51235 368.84303,22.31745 343.6875,69.21875 C323.92651,63.32071 303.36802,60.13106 282.625,59.875 C265.84749,31.10834 274.94611,14.313319 290.09375,0.28125 L290.09375,0.28125 Z M281.875,113.875 C377.34873,113.875 454.75,188.63269 454.75,280.875 C454.75,373.11731 377.34873,447.90625 281.875,447.90625 C186.40127,447.90625 109,373.11731 109,280.875 C109,188.63269 186.40127,113.875 281.875,113.875 L281.875,113.875 Z M281.875,113.875" id="path17651"></path>
            </g>
        </g>
    </g>
</svg>